<svg width="831" height="114" viewBox="0 0 831 114" fill="none" xmlns="http://www.w3.org/2000/svg">
<path d="M89.9844 112V113H90.9844V112H89.9844ZM53.5625 112L52.6747 112.46L52.9545 113H53.5625V112ZM16.0156 39.5781L16.9034 39.1179L16.6236 38.5781H16.0156V39.5781ZM15.3828 39.5781V38.5781H14.2708L14.3884 39.6839L15.3828 39.5781ZM16.5078 57.0156L15.5088 57.0591L15.5088 57.0597L16.5078 57.0156ZM16.7188 112V113H17.7188V112H16.7188ZM-7.89062 112H-8.89062V113H-7.89062V112ZM-7.89062 9.20312V8.20312H-8.89062V9.20312H-7.89062ZM28.3906 9.20312L29.2765 8.73925L28.9958 8.20312H28.3906V9.20312ZM65.7969 80.6406L64.911 81.1045L65.1917 81.6406H65.7969V80.6406ZM66.2188 80.6406V81.6406H67.2832L67.2168 80.5782L66.2188 80.6406ZM65.7969 72.8359L64.798 72.8828L64.798 72.8835L65.7969 72.8359ZM65.375 63.7656L64.3755 63.7964L64.3757 63.8041L64.3761 63.8117L65.375 63.7656ZM65.2344 9.20312V8.20312H64.2344V9.20312H65.2344ZM89.9844 9.20312H90.9844V8.20312H89.9844V9.20312ZM89.9844 111H53.5625V113H89.9844V111ZM54.4503 111.54L16.9034 39.1179L15.1278 40.0384L52.6747 112.46L54.4503 111.54ZM16.0156 38.5781H15.3828V40.5781H16.0156V38.5781ZM14.3884 39.6839C14.6207 41.8674 14.8305 44.4999 15.0175 47.5839L17.0138 47.4629C16.8257 44.3595 16.6137 41.6951 16.3772 39.4723L14.3884 39.6839ZM15.0175 47.5839C15.2046 50.6718 15.3684 53.8301 15.5088 57.0591L17.5069 56.9722C17.366 53.7324 17.2017 50.5626 17.0138 47.4629L15.0175 47.5839ZM15.5088 57.0597C15.6489 60.2358 15.7188 63.1036 15.7188 65.6641H17.7188C17.7188 63.0683 17.648 60.1704 17.5068 56.9715L15.5088 57.0597ZM15.7188 65.6641V112H17.7188V65.6641H15.7188ZM16.7188 111H-7.89062V113H16.7188V111ZM-6.89062 112V9.20312H-8.89062V112H-6.89062ZM-7.89062 10.2031H28.3906V8.20312H-7.89062V10.2031ZM27.5047 9.667L64.911 81.1045L66.6828 80.1768L29.2765 8.73925L27.5047 9.667ZM65.7969 81.6406H66.2188V79.6406H65.7969V81.6406ZM67.2168 80.5782C67.0766 78.3344 66.9362 75.738 66.7957 72.7884L64.798 72.8835C64.9388 75.8401 65.0797 78.4468 65.2207 80.703L67.2168 80.5782ZM66.7958 72.7891C66.6552 69.7894 66.5145 66.7662 66.3739 63.7195L64.3761 63.8117C64.5167 66.8588 64.6573 69.8825 64.798 72.8828L66.7958 72.7891ZM66.3745 63.7349C66.281 60.6954 66.2344 58.0107 66.2344 55.6797H64.2344C64.2344 58.0362 64.2815 60.7421 64.3755 63.7964L66.3745 63.7349ZM66.2344 55.6797V9.20312H64.2344V55.6797H66.2344ZM65.2344 10.2031H89.9844V8.20312H65.2344V10.2031ZM88.9844 9.20312V112H90.9844V9.20312H88.9844ZM163.391 110.734L163.731 111.675L163.739 111.672L163.391 110.734ZM130.836 110.734L130.479 111.668L130.49 111.673L130.836 110.734ZM110.023 89.7109L109.086 90.0602L109.089 90.0676L110.023 89.7109ZM111.922 49.6328L111.039 49.164L111.036 49.1693L111.922 49.6328ZM125.703 35.7109L125.234 34.8278L125.231 34.8294L125.703 35.7109ZM181.531 49.6328L180.656 50.1173L180.659 50.1224L181.531 49.6328ZM136.25 83.5234L135.281 83.7694L135.282 83.7729L136.25 83.5234ZM140.047 90.625L139.36 91.3515L139.37 91.361L139.38 91.3702L140.047 90.625ZM153.828 90.625L154.515 91.352L154.52 91.347L154.525 91.342L153.828 90.625ZM157.484 83.5234L156.515 83.2775L156.513 83.2878L157.484 83.5234ZM157.484 60.6016L156.513 60.8406L156.515 60.8476L156.517 60.8546L157.484 60.6016ZM153.758 53.7109L153.082 54.4482L153.092 54.4572L153.758 53.7109ZM137.797 56.5938L136.917 56.1182L136.912 56.1275L137.797 56.5938ZM185.664 71.9922C185.664 78.5584 184.762 84.3482 182.979 89.3768L184.864 90.0451C186.738 84.7612 187.664 78.7384 187.664 71.9922H185.664ZM182.979 89.3768C181.195 94.4099 178.62 98.6159 175.265 102.016L176.688 103.421C180.271 99.7904 182.993 95.3245 184.864 90.0451L182.979 89.3768ZM175.265 102.016C171.905 105.422 167.836 108.016 163.042 109.797L163.739 111.672C168.789 109.796 173.111 107.047 176.688 103.421L175.265 102.016ZM163.05 109.794C158.255 111.529 152.819 112.406 146.727 112.406V114.406C153.009 114.406 158.682 113.502 163.731 111.675L163.05 109.794ZM146.727 112.406C141.065 112.406 135.887 111.532 131.182 109.796L130.49 111.673C135.441 113.499 140.857 114.406 146.727 114.406V112.406ZM131.193 109.8C126.538 108.02 122.484 105.423 119.023 102.007L117.618 103.431C121.281 107.046 125.571 109.792 130.479 111.668L131.193 109.8ZM119.023 102.007C115.572 98.6017 112.881 94.3908 110.958 89.3542L109.089 90.0676C111.104 95.3436 113.944 99.8046 117.618 103.431L119.023 102.007ZM110.96 89.3617C109.088 84.3378 108.141 78.5535 108.141 71.9922H106.141C106.141 78.7434 107.115 84.7715 109.086 90.0602L110.96 89.3617ZM108.141 71.9922C108.141 63.2969 109.713 56.0124 112.808 50.0963L111.036 49.1693C107.755 55.4407 106.141 63.0624 106.141 71.9922H108.141ZM112.805 50.1016C115.949 44.1792 120.401 39.6842 126.175 36.5925L125.231 34.8294C119.099 38.1127 114.364 42.8989 111.039 49.164L112.805 50.1016ZM126.172 36.5941C131.999 33.4985 138.979 31.9297 147.148 31.9297V29.9297C138.724 29.9297 131.407 31.5484 125.234 34.8278L126.172 36.5941ZM147.148 31.9297C154.646 31.9297 161.277 33.4925 167.067 36.5925L168.011 34.8294C161.895 31.5544 154.932 29.9297 147.148 29.9297V31.9297ZM167.067 36.5925C172.845 39.6862 177.372 44.1863 180.656 50.1173L182.406 49.1483C178.941 42.8918 174.139 38.1107 168.011 34.8294L167.067 36.5925ZM180.659 50.1224C183.978 56.0325 185.664 63.3072 185.664 71.9922H187.664C187.664 63.0522 185.928 55.4206 182.403 49.1432L180.659 50.1224ZM134.055 71.9922C134.055 76.5915 134.457 80.5234 135.281 83.7694L137.219 83.2775C136.449 80.2423 136.055 76.4866 136.055 71.9922H134.055ZM135.282 83.7729C136.11 86.9889 137.45 89.5446 139.36 91.3515L140.734 89.8985C139.175 88.4241 137.984 86.2454 137.218 83.274L135.282 83.7729ZM139.38 91.3702C141.379 93.1591 143.953 94.0156 147.008 94.0156V92.0156C144.344 92.0156 142.277 91.2784 140.714 89.8798L139.38 91.3702ZM147.008 94.0156C150.06 94.0156 152.601 93.1596 154.515 91.352L153.141 89.898C151.68 91.2779 149.674 92.0156 147.008 92.0156V94.0156ZM154.525 91.342C156.388 89.5314 157.677 86.9733 158.456 83.759L156.513 83.2878C155.792 86.261 154.644 88.4374 153.131 89.908L154.525 91.342ZM158.454 83.7694C159.277 80.5234 159.68 76.5915 159.68 71.9922H157.68C157.68 76.4866 157.285 80.2423 156.515 83.2775L158.454 83.7694ZM159.68 71.9922C159.68 67.3942 159.278 63.5056 158.452 60.3485L156.517 60.8546C157.285 63.7913 157.68 67.4965 157.68 71.9922H159.68ZM158.455 60.3625C157.674 57.1868 156.353 54.6856 154.423 52.9646L153.092 54.4572C154.631 55.83 155.795 57.9226 156.513 60.8406L158.455 60.3625ZM154.434 52.9738C152.516 51.2159 149.954 50.3906 146.867 50.3906V52.3906C149.593 52.3906 151.625 53.1122 153.082 54.4481L154.434 52.9738ZM146.867 50.3906C144.641 50.3906 142.664 50.8543 140.973 51.824C139.28 52.7954 137.931 54.2423 136.917 56.1182L138.677 57.0693C139.538 55.4765 140.638 54.3217 141.968 53.5588C143.301 52.7942 144.921 52.3906 146.867 52.3906V50.3906ZM136.912 56.1275C134.972 59.8097 134.055 65.136 134.055 71.9922H136.055C136.055 65.2546 136.966 60.3153 138.682 57.06L136.912 56.1275ZM247.414 110.102L247.009 109.187L247.005 109.189L247.414 110.102ZM212.68 112.492L212.544 113.483L212.546 113.483L212.68 112.492ZM199.109 108.977H198.109V109.668L198.756 109.912L199.109 108.977ZM199.109 86.9688L199.526 86.0595L198.109 85.4109V86.9688H199.109ZM214.438 91.9609L214.243 92.9419L214.252 92.9435L214.438 91.9609ZM233.492 92.4531L233.915 93.3594L233.928 93.3533L233.492 92.4531ZM234.195 86.4062L233.526 87.1495L233.546 87.167L233.566 87.1835L234.195 86.4062ZM229.062 83.5234L228.658 84.438L228.664 84.4408L229.062 83.5234ZM218.727 79.1641L218.343 80.0877L218.347 80.0891L218.727 79.1641ZM207.688 73.1875L207.092 73.9906L207.098 73.9951L207.688 73.1875ZM246.641 32.6875L246.396 33.6571L246.405 33.6594L246.641 32.6875ZM261.055 37.6797L261.975 38.0705L262.36 37.1645L261.46 36.7655L261.055 37.6797ZM253.531 55.3984L253.119 56.3095L254.052 56.7314L254.452 55.7893L253.531 55.3984ZM226.391 55.3984L225.705 56.1266L225.716 56.1364L225.726 56.1458L226.391 55.3984ZM241.156 62.1484L240.781 63.0755L240.782 63.0756L241.156 62.1484ZM252.617 68.1953L252.034 69.0073L252.041 69.0125L252.048 69.0175L252.617 68.1953ZM259.367 75.9297L258.465 76.3602L258.47 76.3714L259.367 75.9297ZM260.617 87.5312C260.617 92.4406 259.528 96.7403 257.377 100.46L259.108 101.462C261.457 97.4003 262.617 92.7469 262.617 87.5312H260.617ZM257.377 100.46C255.253 104.132 251.826 107.052 247.009 109.187L247.819 111.016C252.94 108.745 256.731 105.571 259.108 101.462L257.377 100.46ZM247.005 109.189C242.26 111.313 235.923 112.406 227.938 112.406V114.406C236.077 114.406 242.725 113.296 247.823 111.014L247.005 109.189ZM227.938 112.406C222.3 112.406 217.26 112.103 212.814 111.501L212.546 113.483C217.099 114.1 222.231 114.406 227.938 114.406V112.406ZM212.815 111.501C208.443 110.903 203.993 109.751 199.463 108.041L198.756 109.912C203.414 111.671 208.01 112.863 212.544 113.483L212.815 111.501ZM200.109 108.977V86.9688H198.109V108.977H200.109ZM198.693 87.878C203.777 90.206 208.96 91.8948 214.243 92.9419L214.632 90.98C209.508 89.9645 204.473 88.3252 199.526 86.0595L198.693 87.878ZM214.252 92.9435C219.477 93.9321 223.65 94.4375 226.742 94.4375V92.4375C223.834 92.4375 219.804 91.9585 214.623 90.9784L214.252 92.9435ZM226.742 94.4375C229.865 94.4375 232.301 94.1127 233.915 93.3593L233.069 91.5469C231.871 92.106 229.807 92.4375 226.742 92.4375V94.4375ZM233.928 93.3533C234.765 92.948 235.46 92.4162 235.944 91.7283C236.436 91.0308 236.672 90.2284 236.672 89.3594H234.672C234.672 89.8497 234.545 90.2426 234.309 90.5764C234.068 90.9198 233.672 91.2551 233.057 91.553L233.928 93.3533ZM236.672 89.3594C236.672 87.8589 236.022 86.5982 234.825 85.629L233.566 87.1835C234.338 87.808 234.672 88.5161 234.672 89.3594H236.672ZM234.864 85.663C233.798 84.7031 231.957 83.6895 229.461 82.6061L228.664 84.4408C231.137 85.5136 232.718 86.4219 233.526 87.1495L234.864 85.663ZM229.467 82.6089C227.017 81.5254 223.562 80.0683 219.106 78.239L218.347 80.0891C222.797 81.9161 226.233 83.3653 228.658 84.438L229.467 82.6089ZM219.11 78.2404C214.756 76.434 211.15 74.4777 208.277 72.3799L207.098 73.9951C210.131 76.2098 213.885 78.2379 218.343 80.0877L219.11 78.2404ZM208.283 72.3844C205.495 70.3158 203.425 67.8599 202.048 65.0172L200.248 65.8891C201.778 69.0464 204.067 71.7467 207.092 73.9906L208.283 72.3844ZM202.048 65.0172C200.678 62.1882 199.969 58.6671 199.969 54.4141H197.969C197.969 58.8798 198.712 62.718 200.248 65.8891L202.048 65.0172ZM199.969 54.4141C199.969 46.936 202.826 41.4069 208.517 37.672L207.42 35.9999C201.111 40.14 197.969 46.3296 197.969 54.4141H199.969ZM208.517 37.672C214.304 33.8748 222.038 31.9297 231.805 31.9297V29.9297C221.79 29.9297 213.634 31.9221 207.42 35.9999L208.517 37.672ZM231.805 31.9297C236.98 31.9297 241.842 32.5072 246.396 33.6571L246.885 31.7179C242.158 30.524 237.129 29.9297 231.805 29.9297V31.9297ZM246.405 33.6594C250.98 34.7685 255.728 36.4117 260.649 38.5939L261.46 36.7655C256.444 34.5414 251.582 32.8565 246.876 31.7156L246.405 33.6594ZM260.134 37.2889L252.611 55.0076L254.452 55.7893L261.975 38.0705L260.134 37.2889ZM253.943 54.4873C249.958 52.6844 245.922 51.236 241.836 50.1433L241.32 52.0754C245.297 53.139 249.229 54.55 253.119 56.3095L253.943 54.4873ZM241.836 50.1433C237.774 49.0567 234.465 48.4922 231.945 48.4922V50.4922C234.207 50.4922 237.32 51.0058 241.32 52.0754L241.836 50.1433ZM231.945 48.4922C229.726 48.4922 227.888 48.7779 226.52 49.4344L227.386 51.2375C228.362 50.769 229.852 50.4922 231.945 50.4922V48.4922ZM226.52 49.4344C225.825 49.768 225.236 50.2104 224.821 50.7918C224.398 51.3836 224.195 52.0647 224.195 52.7969H226.195C226.195 52.4509 226.285 52.1828 226.449 51.9543C226.619 51.7154 226.909 51.4663 227.386 51.2375L226.52 49.4344ZM224.195 52.7969C224.195 54.0893 224.732 55.211 225.705 56.1266L227.076 54.6702C226.455 54.0859 226.195 53.4732 226.195 52.7969H224.195ZM225.726 56.1458C226.7 57.0118 228.402 57.9311 230.708 58.9191L231.495 57.0809C229.207 56.1001 227.768 55.2851 227.055 54.651L225.726 56.1458ZM230.708 58.9191C233.014 59.9077 236.373 61.2936 240.781 63.0755L241.531 61.2213C237.127 59.4408 233.783 58.0611 231.495 57.0809L230.708 58.9191ZM240.782 63.0756C245.372 64.9305 249.117 66.9108 252.034 69.0073L253.201 67.3833C250.118 65.1673 246.221 63.1164 241.531 61.2213L240.782 63.0756ZM252.048 69.0175C254.966 71.0376 257.094 73.4858 258.465 76.3602L260.27 75.4992C258.734 72.2798 256.362 69.5718 253.186 67.3731L252.048 69.0175ZM258.47 76.3714C259.882 79.2388 260.617 82.942 260.617 87.5312H262.617C262.617 82.7455 261.853 78.7143 260.264 75.488L258.47 76.3714ZM321.945 110.102L321.54 109.187L321.537 109.189L321.945 110.102ZM287.211 112.492L287.075 113.483L287.077 113.483L287.211 112.492ZM273.641 108.977H272.641V109.668L273.287 109.912L273.641 108.977ZM273.641 86.9688L274.057 86.0595L272.641 85.4109V86.9688H273.641ZM288.969 91.9609L288.774 92.9419L288.783 92.9435L288.969 91.9609ZM308.023 92.4531L308.446 93.3594L308.459 93.3533L308.023 92.4531ZM308.727 86.4062L308.058 87.1495L308.077 87.167L308.097 87.1835L308.727 86.4062ZM303.594 83.5234L303.189 84.438L303.196 84.4408L303.594 83.5234ZM293.258 79.1641L292.875 80.0877L292.878 80.0891L293.258 79.1641ZM282.219 73.1875L281.623 73.9906L281.629 73.9951L282.219 73.1875ZM321.172 32.6875L320.927 33.6571L320.936 33.6594L321.172 32.6875ZM335.586 37.6797L336.506 38.0705L336.891 37.1645L335.991 36.7655L335.586 37.6797ZM328.062 55.3984L327.65 56.3095L328.583 56.7314L328.983 55.7893L328.062 55.3984ZM300.922 55.3984L300.237 56.1266L300.247 56.1364L300.258 56.1458L300.922 55.3984ZM315.688 62.1484L315.313 63.0755L315.313 63.0756L315.688 62.1484ZM327.148 68.1953L326.565 69.0073L326.572 69.0125L326.579 69.0175L327.148 68.1953ZM333.898 75.9297L332.996 76.3602L333.001 76.3714L333.898 75.9297ZM335.148 87.5312C335.148 92.4406 334.059 96.7403 331.908 100.46L333.639 101.462C335.988 97.4003 337.148 92.7469 337.148 87.5312H335.148ZM331.908 100.46C329.784 104.132 326.357 107.052 321.54 109.187L322.351 111.016C327.471 108.745 331.263 105.571 333.639 101.462L331.908 100.46ZM321.537 109.189C316.791 111.313 310.454 112.406 302.469 112.406V114.406C310.609 114.406 317.256 113.296 322.354 111.014L321.537 109.189ZM302.469 112.406C296.831 112.406 291.791 112.103 287.345 111.501L287.077 113.483C291.631 114.1 296.763 114.406 302.469 114.406V112.406ZM287.347 111.501C282.974 110.903 278.524 109.751 273.994 108.041L273.287 109.912C277.945 111.671 282.541 112.863 287.075 113.483L287.347 111.501ZM274.641 108.977V86.9688H272.641V108.977H274.641ZM273.224 87.878C278.308 90.206 283.492 91.8948 288.774 92.9419L289.163 90.98C284.04 89.9645 279.005 88.3252 274.057 86.0595L273.224 87.878ZM288.783 92.9435C294.008 93.9321 298.181 94.4375 301.273 94.4375V92.4375C298.366 92.4375 294.335 91.9585 289.155 90.9784L288.783 92.9435ZM301.273 94.4375C304.396 94.4375 306.832 94.1127 308.446 93.3593L307.601 91.5469C306.403 92.106 304.338 92.4375 301.273 92.4375V94.4375ZM308.459 93.3533C309.297 92.948 309.991 92.4162 310.476 91.7283C310.967 91.0308 311.203 90.2284 311.203 89.3594H309.203C309.203 89.8497 309.076 90.2426 308.841 90.5764C308.599 90.9198 308.203 91.2551 307.588 91.553L308.459 93.3533ZM311.203 89.3594C311.203 87.8589 310.553 86.5982 309.356 85.629L308.097 87.1835C308.869 87.808 309.203 88.5161 309.203 89.3594H311.203ZM309.396 85.663C308.329 84.7031 306.488 83.6895 303.992 82.6061L303.196 84.4408C305.668 85.5136 307.249 86.4219 308.058 87.1495L309.396 85.663ZM303.998 82.6089C301.549 81.5254 298.094 80.0683 293.638 78.239L292.878 80.0891C297.328 81.9161 300.764 83.3653 303.189 84.438L303.998 82.6089ZM293.641 78.2404C289.287 76.434 285.682 74.4777 282.808 72.3799L281.629 73.9951C284.662 76.2098 288.416 78.2379 292.875 80.0877L293.641 78.2404ZM282.815 72.3844C280.027 70.3158 277.957 67.8599 276.58 65.0172L274.78 65.8891C276.309 69.0464 278.598 71.7467 281.623 73.9906L282.815 72.3844ZM276.58 65.0172C275.209 62.1882 274.5 58.6671 274.5 54.4141H272.5C272.5 58.8798 273.244 62.718 274.78 65.8891L276.58 65.0172ZM274.5 54.4141C274.5 46.936 277.357 41.4069 283.049 37.672L281.951 35.9999C275.643 40.14 272.5 46.3296 272.5 54.4141H274.5ZM283.049 37.672C288.835 33.8748 296.569 31.9297 306.336 31.9297V29.9297C296.322 29.9297 288.165 31.9221 281.951 35.9999L283.049 37.672ZM306.336 31.9297C311.511 31.9297 316.374 32.5072 320.927 33.6571L321.417 31.7179C316.689 30.524 311.661 29.9297 306.336 29.9297V31.9297ZM320.936 33.6594C325.511 34.7685 330.259 36.4117 335.181 38.5939L335.991 36.7655C330.975 34.5414 326.114 32.8565 321.407 31.7156L320.936 33.6594ZM334.665 37.2889L327.142 55.0076L328.983 55.7893L336.506 38.0705L334.665 37.2889ZM328.475 54.4873C324.489 52.6844 320.453 51.236 316.368 50.1433L315.851 52.0754C319.828 53.139 323.761 54.55 327.65 56.3095L328.475 54.4873ZM316.368 50.1433C312.305 49.0567 308.996 48.4922 306.477 48.4922V50.4922C308.738 50.4922 311.851 51.0058 315.851 52.0754L316.368 50.1433ZM306.477 48.4922C304.257 48.4922 302.419 48.7779 301.052 49.4344L301.917 51.2375C302.893 50.769 304.384 50.4922 306.477 50.4922V48.4922ZM301.052 49.4344C300.357 49.768 299.768 50.2104 299.352 50.7918C298.93 51.3836 298.727 52.0647 298.727 52.7969H300.727C300.727 52.4509 300.817 52.1828 300.98 51.9543C301.15 51.7154 301.44 51.4663 301.917 51.2375L301.052 49.4344ZM298.727 52.7969C298.727 54.0893 299.264 55.211 300.237 56.1266L301.607 54.6702C300.986 54.0859 300.727 53.4732 300.727 52.7969H298.727ZM300.258 56.1458C301.232 57.0118 302.934 57.9311 305.239 58.9191L306.027 57.0809C303.738 56.1001 302.3 55.2851 301.586 54.651L300.258 56.1458ZM305.239 58.9191C307.545 59.9077 310.905 61.2936 315.313 63.0755L316.062 61.2213C311.658 59.4408 308.314 58.0611 306.027 57.0809L305.239 58.9191ZM315.313 63.0756C319.904 64.9305 323.648 66.9108 326.565 69.0073L327.732 67.3833C324.649 65.1673 320.753 63.1164 316.062 61.2213L315.313 63.0756ZM326.579 69.0175C329.497 71.0376 331.625 73.4858 332.996 76.3602L334.801 75.4992C333.266 72.2798 330.893 69.5718 327.718 67.3731L326.579 69.0175ZM333.001 76.3714C334.413 79.2388 335.148 82.942 335.148 87.5312H337.148C337.148 82.7455 336.384 78.7143 334.796 75.488L333.001 76.3714ZM404.281 110.734L404.622 111.675L404.629 111.672L404.281 110.734ZM371.727 110.734L371.369 111.668L371.38 111.673L371.727 110.734ZM350.914 89.7109L349.977 90.0602L349.98 90.0676L350.914 89.7109ZM352.812 49.6328L351.929 49.164L351.926 49.1693L352.812 49.6328ZM366.594 35.7109L366.125 34.8278L366.122 34.8294L366.594 35.7109ZM422.422 49.6328L421.547 50.1173L421.55 50.1224L422.422 49.6328ZM377.141 83.5234L376.171 83.7694L376.172 83.7729L377.141 83.5234ZM380.938 90.625L380.25 91.3515L380.26 91.361L380.271 91.3702L380.938 90.625ZM394.719 90.625L395.405 91.352L395.411 91.347L395.416 91.342L394.719 90.625ZM398.375 83.5234L397.406 83.2775L397.403 83.2878L398.375 83.5234ZM398.375 60.6016L397.404 60.8406L397.406 60.8476L397.408 60.8546L398.375 60.6016ZM394.648 53.7109L393.973 54.4482L393.983 54.4572L394.648 53.7109ZM378.688 56.5938L377.808 56.1182L377.803 56.1275L378.688 56.5938ZM426.555 71.9922C426.555 78.5584 425.653 84.3482 423.87 89.3768L425.755 90.0451C427.628 84.7612 428.555 78.7384 428.555 71.9922H426.555ZM423.87 89.3768C422.086 94.4099 419.511 98.6159 416.155 102.016L417.579 103.421C421.161 99.7904 423.883 95.3245 425.755 90.0451L423.87 89.3768ZM416.155 102.016C412.796 105.422 408.727 108.016 403.933 109.797L404.629 111.672C409.679 109.796 414.001 107.047 417.579 103.421L416.155 102.016ZM403.941 109.794C399.146 111.529 393.709 112.406 387.617 112.406V114.406C393.9 114.406 399.573 113.502 404.622 111.675L403.941 109.794ZM387.617 112.406C381.956 112.406 376.777 111.532 372.073 109.796L371.38 111.673C376.332 113.499 381.748 114.406 387.617 114.406V112.406ZM372.084 109.8C367.429 108.02 363.375 105.423 359.913 102.007L358.509 103.431C362.172 107.046 366.462 109.792 371.369 111.668L372.084 109.8ZM359.913 102.007C356.463 98.6017 353.771 94.3908 351.848 89.3542L349.98 90.0676C351.994 95.3436 354.834 99.8046 358.509 103.431L359.913 102.007ZM351.851 89.3617C349.979 84.3378 349.031 78.5535 349.031 71.9922H347.031C347.031 78.7434 348.006 84.7715 349.977 90.0602L351.851 89.3617ZM349.031 71.9922C349.031 63.2969 350.604 56.0124 353.699 50.0963L351.926 49.1693C348.646 55.4407 347.031 63.0624 347.031 71.9922H349.031ZM353.696 50.1016C356.839 44.1792 361.292 39.6842 367.066 36.5925L366.122 34.8294C359.99 38.1127 355.255 42.8989 351.929 49.164L353.696 50.1016ZM367.063 36.5941C372.89 33.4985 379.87 31.9297 388.039 31.9297V29.9297C379.614 29.9297 372.298 31.5484 366.125 34.8278L367.063 36.5941ZM388.039 31.9297C395.537 31.9297 402.168 33.4925 407.958 36.5925L408.902 34.8294C402.785 31.5544 395.822 29.9297 388.039 29.9297V31.9297ZM407.958 36.5925C413.736 39.6862 418.262 44.1863 421.547 50.1173L423.297 49.1483C419.832 42.8918 415.03 38.1107 408.902 34.8294L407.958 36.5925ZM421.55 50.1224C424.869 56.0325 426.555 63.3072 426.555 71.9922H428.555C428.555 63.0522 426.819 55.4206 423.294 49.1432L421.55 50.1224ZM374.945 71.9922C374.945 76.5915 375.348 80.5234 376.171 83.7694L378.11 83.2775C377.34 80.2423 376.945 76.4866 376.945 71.9922H374.945ZM376.172 83.7729C377.001 86.9889 378.34 89.5446 380.25 91.3515L381.625 89.8985C380.066 88.4241 378.874 86.2454 378.109 83.274L376.172 83.7729ZM380.271 91.3702C382.27 93.1591 384.844 94.0156 387.898 94.0156V92.0156C385.234 92.0156 383.168 91.2784 381.604 89.8798L380.271 91.3702ZM387.898 94.0156C390.951 94.0156 393.491 93.1596 395.405 91.352L394.032 89.898C392.571 91.2779 390.565 92.0156 387.898 92.0156V94.0156ZM395.416 91.342C397.278 89.5314 398.568 86.9733 399.347 83.759L397.403 83.2878C396.682 86.261 395.534 88.4374 394.022 89.908L395.416 91.342ZM399.344 83.7694C400.168 80.5234 400.57 76.5915 400.57 71.9922H398.57C398.57 76.4866 398.176 80.2423 397.406 83.2775L399.344 83.7694ZM400.57 71.9922C400.57 67.3942 400.168 63.5056 399.342 60.3485L397.408 60.8546C398.176 63.7913 398.57 67.4965 398.57 71.9922H400.57ZM399.346 60.3625C398.564 57.1868 397.244 54.6856 395.314 52.9646L393.983 54.4572C395.522 55.83 396.686 57.9226 397.404 60.8406L399.346 60.3625ZM395.324 52.9738C393.406 51.2159 390.844 50.3906 387.758 50.3906V52.3906C390.484 52.3906 392.515 53.1122 393.973 54.4481L395.324 52.9738ZM387.758 50.3906C385.532 50.3906 383.554 50.8543 381.864 51.824C380.17 52.7954 378.822 54.2423 377.808 56.1182L379.567 57.0693C380.428 55.4765 381.529 54.3217 382.859 53.5588C384.192 52.7942 385.812 52.3906 387.758 52.3906V50.3906ZM377.803 56.1275C375.862 59.8097 374.945 65.136 374.945 71.9922H376.945C376.945 65.2546 377.857 60.3153 379.572 57.06L377.803 56.1275ZM527.68 112V113H528.68V112H527.68ZM499.906 112H498.906V113H499.906V112ZM499.906 31.9141H500.906V30.9141H499.906V31.9141ZM474.805 31.9141H473.805V32.9141H474.805V31.9141ZM474.805 9.20312V8.20312H473.805V9.20312H474.805ZM552.711 9.20312H553.711V8.20312H552.711V9.20312ZM552.711 31.9141V32.9141H553.711V31.9141H552.711ZM527.68 31.9141V30.9141H526.68V31.9141H527.68ZM527.68 111H499.906V113H527.68V111ZM500.906 112V31.9141H498.906V112H500.906ZM499.906 30.9141H474.805V32.9141H499.906V30.9141ZM475.805 31.9141V9.20312H473.805V31.9141H475.805ZM474.805 10.2031H552.711V8.20312H474.805V10.2031ZM551.711 9.20312V31.9141H553.711V9.20312H551.711ZM552.711 30.9141H527.68V32.9141H552.711V30.9141ZM526.68 31.9141V112H528.68V31.9141H526.68ZM593.422 32.3359H594.422V31.3359H593.422V32.3359ZM593.422 112V113H594.422V112H593.422ZM565.93 112H564.93V113H565.93V112ZM565.93 32.3359V31.3359H564.93V32.3359H565.93ZM590.047 2.73438L589.555 3.60522L589.561 3.60853L590.047 2.73438ZM590.047 22.1406L590.538 23.0115L590.543 23.0089L590.047 22.1406ZM569.445 22.1406L568.931 22.9981L568.939 23.0031L568.948 23.008L569.445 22.1406ZM569.445 2.73438L568.948 1.86699L568.941 1.8706L569.445 2.73438ZM592.422 32.3359V112H594.422V32.3359H592.422ZM593.422 111H565.93V113H593.422V111ZM566.93 112V32.3359H564.93V112H566.93ZM565.93 33.3359H593.422V31.3359H565.93V33.3359ZM579.781 1.27344C583.578 1.27344 586.824 2.06334 589.555 3.6052L590.538 1.86355C587.457 0.124164 583.86 -0.726562 579.781 -0.726562V1.27344ZM589.561 3.60853C592.066 5.00028 593.477 7.81699 593.477 12.5078H595.477C595.477 7.44864 593.934 3.74972 590.533 1.86022L589.561 3.60853ZM593.477 12.5078C593.477 17.0412 592.076 19.8294 589.551 21.2724L590.543 23.0089C593.924 21.0768 595.477 17.4432 595.477 12.5078H593.477ZM589.555 21.2698C586.824 22.8117 583.578 23.6016 579.781 23.6016V25.6016C583.86 25.6016 587.457 24.7508 590.538 23.0114L589.555 21.2698ZM579.781 23.6016C575.886 23.6016 572.621 22.8096 569.943 21.2733L568.948 23.008C571.989 24.7529 575.614 25.6016 579.781 25.6016V23.6016ZM569.96 21.2831C567.571 19.8496 566.227 17.0617 566.227 12.5078H564.227C564.227 17.4227 565.695 21.0566 568.931 22.9981L569.96 21.2831ZM566.227 12.5078C566.227 7.79644 567.58 4.98027 569.949 3.59815L568.941 1.8706C565.686 3.76973 564.227 7.46919 564.227 12.5078H566.227ZM569.943 3.60174C572.621 2.06544 575.886 1.27344 579.781 1.27344V-0.726562C575.614 -0.726562 571.989 0.122056 568.948 1.86701L569.943 3.60174ZM730.672 37.8906L729.975 38.6082L729.979 38.6116L730.672 37.8906ZM737.914 112V113H738.914V112H737.914ZM710.422 112H709.422V113H710.422V112ZM707.961 56.1016L707.129 56.6563L707.135 56.6657L707.142 56.675L707.961 56.1016ZM691.508 58.3516L690.594 57.9444L690.59 57.9536L691.508 58.3516ZM688.977 112V113H689.977V112H688.977ZM661.414 112H660.414V113H661.414V112ZM660.359 59.4062L659.395 59.671L659.398 59.6823L659.402 59.6936L660.359 59.4062ZM657.336 54.2031L656.698 54.9735L656.706 54.9802L656.715 54.9866L657.336 54.2031ZM644.82 55.3984L644.087 54.7187L644.086 54.7194L644.82 55.3984ZM640.109 112V113H641.109V112H640.109ZM612.617 112H611.617V113H612.617V112ZM612.617 32.3359V31.3359H611.617V32.3359H612.617ZM633.359 32.3359L634.286 31.9589L634.032 31.3359H633.359V32.3359ZM637.367 42.1797L636.441 42.5568L636.695 43.1797H637.367V42.1797ZM638.141 42.1797V43.1797H638.682L638.978 42.726L638.141 42.1797ZM643.555 36.4141L642.955 35.614L642.947 35.6202L643.555 36.4141ZM651.5 32.4062L651.197 31.4533L651.193 31.4547L651.5 32.4062ZM685.812 42.0391L684.989 42.6065L685.287 43.0391H685.812V42.0391ZM686.656 42.0391V43.0391H687.172L687.471 42.6183L686.656 42.0391ZM709.859 31.9297C718.79 31.9297 725.44 34.2064 729.975 38.6082L731.368 37.173C726.341 32.2936 719.116 29.9297 709.859 29.9297V31.9297ZM729.979 38.6116C734.528 42.9842 736.914 50.0917 736.914 60.1797H738.914C738.914 49.8302 736.472 42.0783 731.365 37.1697L729.979 38.6116ZM736.914 60.1797V112H738.914V60.1797H736.914ZM737.914 111H710.422V113H737.914V111ZM711.422 112V68.6875H709.422V112H711.422ZM711.422 68.6875C711.422 62.62 710.612 58.1454 708.78 55.5281L707.142 56.675C708.591 58.7453 709.422 62.6613 709.422 68.6875H711.422ZM708.793 55.5469C706.991 52.844 704.268 51.5156 700.789 51.5156V53.5156C703.685 53.5156 705.743 54.5778 707.129 56.6563L708.793 55.5469ZM700.789 51.5156C698.415 51.5156 696.335 52.0352 694.597 53.1281C692.856 54.2228 691.529 55.8488 690.594 57.9444L692.421 58.7587C693.221 56.9637 694.308 55.6718 695.661 54.8212C697.017 53.9687 698.71 53.5156 700.789 53.5156V51.5156ZM690.59 57.9536C688.824 62.0272 687.977 67.6938 687.977 74.875H689.977C689.977 67.8062 690.817 62.4571 692.425 58.7495L690.59 57.9536ZM687.977 74.875V112H689.977V74.875H687.977ZM688.977 111H661.414V113H688.977V111ZM662.414 112V68.6875H660.414V112H662.414ZM662.414 68.6875C662.414 64.7952 662.06 61.5932 661.317 59.1189L659.402 59.6936C660.065 61.9068 660.414 64.8923 660.414 68.6875H662.414ZM661.324 59.1415C660.634 56.6308 659.541 54.6757 657.957 53.4196L656.715 54.9866C657.85 55.8868 658.772 57.4004 659.395 59.671L661.324 59.1415ZM657.974 53.4327C656.405 52.135 654.457 51.5156 652.203 51.5156V53.5156C654.074 53.5156 655.548 54.0213 656.698 54.9735L657.974 53.4327ZM652.203 51.5156C648.844 51.5156 646.095 52.5525 644.087 54.7187L645.554 56.0782C647.109 54.4007 649.281 53.5156 652.203 53.5156V51.5156ZM644.086 54.7194C642.18 56.7805 640.905 59.7459 640.182 63.5065L642.146 63.8842C642.829 60.3322 643.992 57.7664 645.554 56.0775L644.086 54.7194ZM640.182 63.5065C639.463 67.2449 639.109 71.7889 639.109 77.125H641.109C641.109 71.8673 641.459 67.4582 642.146 63.8842L640.182 63.5065ZM639.109 77.125V112H641.109V77.125H639.109ZM640.109 111H612.617V113H640.109V111ZM613.617 112V32.3359H611.617V112H613.617ZM612.617 33.3359H633.359V31.3359H612.617V33.3359ZM632.433 32.713L636.441 42.5568L638.293 41.8026L634.286 31.9589L632.433 32.713ZM637.367 43.1797H638.141V41.1797H637.367V43.1797ZM638.978 42.726C640.318 40.6718 642.043 38.8319 644.163 37.2079L642.947 35.6202C640.661 37.3712 638.776 39.3751 637.303 41.6334L638.978 42.726ZM644.155 37.2141C646.305 35.6014 648.851 34.3128 651.807 33.3578L651.193 31.4547C648.055 32.4684 645.305 33.8517 642.955 35.6141L644.155 37.2141ZM651.803 33.3592C654.781 32.4118 658.191 31.9297 662.047 31.9297V29.9297C658.028 29.9297 654.407 30.4319 651.197 31.4533L651.803 33.3592ZM662.047 31.9297C667.802 31.9297 672.459 32.8977 676.071 34.7706L676.992 32.9951C673.01 30.9304 668.01 29.9297 662.047 29.9297V31.9297ZM676.071 34.7706C679.725 36.6651 682.693 39.2748 684.989 42.6065L686.636 41.4716C684.151 37.8658 680.932 35.038 676.992 32.9951L676.071 34.7706ZM685.812 43.0391H686.656V41.0391H685.812V43.0391ZM687.471 42.6183C689.904 39.1951 693.03 36.5627 696.864 34.7132L695.995 32.9118C691.861 34.9061 688.471 37.758 685.841 41.4599L687.471 42.6183ZM696.864 34.7132C700.697 32.8643 705.022 31.9297 709.859 31.9297V29.9297C704.759 29.9297 700.131 30.9169 695.995 32.9118L696.864 34.7132ZM812.516 35.0078L812.08 35.9082L812.087 35.9111L812.516 35.0078ZM830.094 79.5859V80.5859H831.094V79.5859H830.094ZM780.945 79.5859V78.5859H779.888L779.947 79.642L780.945 79.5859ZM785.586 89.8516L784.903 90.5822L784.909 90.5877L785.586 89.8516ZM812.023 92.3828L811.794 91.4095L811.791 91.4101L812.023 92.3828ZM824.891 87.8125H825.891V86.2403L824.467 86.9068L824.891 87.8125ZM824.891 107.57L825.355 108.456L825.891 108.175V107.57H824.891ZM758.586 95.8281L757.729 96.3436L757.732 96.3485L758.586 95.8281ZM758.094 49.1406L758.976 49.6119L758.977 49.6091L758.094 49.1406ZM771.875 35.4297L772.322 36.3241L772.328 36.3213L771.875 35.4297ZM785.305 52.7266L785.988 53.4571L785.988 53.4566L785.305 52.7266ZM781.508 62.2891L780.511 62.2034L780.418 63.2891H781.508V62.2891ZM805.133 62.2891V63.2891H806.153L806.133 62.2691L805.133 62.2891ZM799.789 51.3203L799.234 52.1524L799.245 52.1593L799.789 51.3203ZM792.477 31.9297C800.095 31.9297 806.62 33.2687 812.08 35.9082L812.951 34.1075C807.162 31.3094 800.327 29.9297 792.477 29.9297V31.9297ZM812.087 35.9111C817.527 38.4952 821.708 42.3833 824.653 47.5936L826.394 46.6095C823.245 41.0385 818.755 36.8642 812.945 34.1045L812.087 35.9111ZM824.653 47.5936C827.593 52.7947 829.094 59.3628 829.094 67.3516H831.094C831.094 59.1216 829.548 52.1897 826.394 46.6095L824.653 47.5936ZM829.094 67.3516V79.5859H831.094V67.3516H829.094ZM830.094 78.5859H780.945V80.5859H830.094V78.5859ZM779.947 79.642C780.195 84.0519 781.842 87.7218 784.903 90.5822L786.269 89.1209C783.611 86.6375 782.165 83.4638 781.944 79.5298L779.947 79.642ZM784.909 90.5877C788.065 93.4895 792.613 94.8594 798.383 94.8594V92.8594C792.902 92.8594 788.919 91.5574 786.263 89.1154L784.909 90.5877ZM798.383 94.8594C803.417 94.8594 808.043 94.3608 812.256 93.3555L811.791 91.4101C807.754 92.3736 803.286 92.8594 798.383 92.8594V94.8594ZM812.253 93.3561C816.5 92.354 820.854 90.806 825.315 88.7182L824.467 86.9068C820.115 88.944 815.891 90.4429 811.794 91.4095L812.253 93.3561ZM823.891 87.8125V107.57H825.891V87.8125H823.891ZM824.426 106.685C820.671 108.654 816.565 110.101 812.103 111.021L812.507 112.979C817.139 112.024 821.423 110.518 825.355 108.456L824.426 106.685ZM812.103 111.021C807.646 111.939 801.978 112.406 795.078 112.406V114.406C802.054 114.406 807.869 113.936 812.507 112.979L812.103 111.021ZM795.078 112.406C787.183 112.406 780.154 110.998 773.974 108.206L773.151 110.028C779.627 112.955 786.942 114.406 795.078 114.406V112.406ZM773.974 108.206C767.832 105.43 762.993 101.138 759.44 95.3078L757.732 96.3485C761.492 102.518 766.637 107.085 773.151 110.028L773.974 108.206ZM759.443 95.3126C755.954 89.5132 754.172 81.9963 754.172 72.6953H752.172C752.172 82.2381 753.999 90.1431 757.729 96.3436L759.443 95.3126ZM754.172 72.6953C754.172 63.2388 755.795 55.5636 758.976 49.6119L757.212 48.6693C753.83 54.9989 752.172 63.0268 752.172 72.6953H754.172ZM758.977 49.6091C762.167 43.5937 766.614 39.1783 772.322 36.3241L771.428 34.5353C765.324 37.5873 760.583 42.3125 757.21 48.6721L758.977 49.6091ZM772.328 36.3213C778.07 33.4044 784.777 31.9297 792.477 31.9297V29.9297C784.52 29.9297 777.492 31.455 771.422 34.5381L772.328 36.3213ZM793.461 48.6328C789.993 48.6328 787.024 49.7474 784.621 51.9965L785.988 53.4566C787.992 51.5807 790.46 50.6328 793.461 50.6328V48.6328ZM784.622 51.996C782.215 54.246 780.898 57.7139 780.511 62.2034L782.504 62.3748C782.868 58.1455 784.082 55.2384 785.988 53.4571L784.622 51.996ZM781.508 63.2891H805.133V61.2891H781.508V63.2891ZM806.133 62.2691C806.083 59.8017 805.589 57.5305 804.634 55.4702L802.819 56.3111C803.646 58.0945 804.089 60.0889 804.133 62.3091L806.133 62.2691ZM804.634 55.4702C803.666 53.3818 802.23 51.7115 800.333 50.4813L799.245 52.1593C800.817 53.1791 802.006 54.5557 802.819 56.3111L804.634 55.4702ZM800.344 50.4883C798.455 49.2294 796.141 48.6328 793.461 48.6328V50.6328C795.844 50.6328 797.748 51.1613 799.234 52.1524L800.344 50.4883Z" fill="white" fill-opacity="0.5"/>
</svg>
